<?xml version="1.0" encoding="utf-8"?>
<!-- Generator: Adobe Illustrator 27.5.0, SVG Export Plug-In . SVG Version: 6.00 Build 0)  -->
<svg version="1.1" xmlns="http://www.w3.org/2000/svg" xmlns:xlink="http://www.w3.org/1999/xlink" x="0px" y="0px"
	 viewBox="0 0 3710 3710" style="enable-background:new 0 0 3710 3710;" xml:space="preserve">
<g id="Illustration">
	<g>
		<linearGradient id="SVGID_1_" gradientUnits="userSpaceOnUse" x1="3549.0964" y1="3484.7546" x2="1489.4565" y2="1637.1349">
			<stop  offset="0" style="stop-color:#DAE3FE"/>
			<stop  offset="1" style="stop-color:#E9EFFD"/>
		</linearGradient>
		<path style="fill:url(#SVGID_1_);" d="M2862.748,2845.225c-69.325,71.458-131.354,113.463-178.846,145.174
			c-463.18,309.27-992.646,220.131-1156.343,189.663c-264.106-49.156-487.048-83.833-678.595-256.888
			c-435.253-393.233-414.083-1213.548-81.497-1721.697c39.435-60.252,371.517-552.501,902.129-621.863
			c12.978-1.696,22.661-2.663,31.142-3.561c82.084-8.691,590.745-54.56,1005.507,292.928
			c59.371,49.741,154.917,139.461,243.518,276.299C3273.73,1645.623,3274.757,2420.542,2862.748,2845.225z"/>
		<g>
			<path style="fill:#91B3FA;" d="M3111.195,1770.575c-1.653-9.48-14.945-10.444-17.91-1.289
				c-28.658,88.507-111.075,318.232-228.601,437.213c-191.358,193.728-326.34,515.273-215.568,688.977
				C2649.116,2895.475,3291.334,2803.438,3111.195,1770.575z"/>
			<path style="fill:#BDD0FB;" d="M3088.504,1897.711c0,0-0.14,0.956-0.406,2.809c-0.341,1.863-0.816,4.759-1.518,8.273
				c-1.352,7.12-3.471,17.516-6.364,30.708c-5.876,26.356-14.678,63.924-26.711,108.629c-6.136,22.317-12.842,46.484-20.464,71.892
				c-7.502,25.442-15.865,52.142-24.835,79.659c-9.231,27.431-18.91,55.736-29.451,84.248c-2.623,7.132-5.259,14.292-7.902,21.474
				c-2.74,7.145-5.49,14.311-8.246,21.491c-5.412,14.398-11.285,28.684-17.009,43.026c-5.74,14.338-11.847,28.528-17.831,42.701
				c-6.276,14.049-12.53,28.042-18.731,41.925c-6.517,13.741-12.744,27.484-19.326,40.859c-3.302,6.683-6.585,13.324-9.842,19.919
				c-3.231,6.609-6.494,13.142-9.897,19.539c-13.251,25.762-26.62,50.392-40.112,73.276c-13.352,22.968-26.769,44.21-39.37,63.666
				c-6.484,9.61-12.699,18.818-18.611,27.575c-6.046,8.664-12.114,16.654-17.633,24.281c-2.789,3.793-5.49,7.464-8.096,11.007
				c-2.727,3.453-5.356,6.782-7.882,9.982c-5.051,6.393-9.689,12.266-13.879,17.571c-8.558,10.464-15.692,18.349-20.373,23.868
				c-4.736,5.475-7.261,8.394-7.261,8.394c-0.601,0.696-1.651,0.772-2.343,0.171c-0.679-0.587-0.767-1.603-0.211-2.296l0.045-0.058
				c0,0,2.409-3,6.927-8.625c4.469-5.662,11.226-13.797,19.492-24.409c4.024-5.391,8.48-11.36,13.333-17.857
				c2.425-3.249,4.947-6.627,7.567-10.135c2.496-3.595,5.08-7.32,7.755-11.168c5.298-7.726,11.058-15.861,16.905-24.587
				c5.733-8.807,11.76-18.065,18.049-27.727c12.211-19.557,25.196-40.895,38.093-63.955c12.93-23.036,26.145-47.568,39.198-73.269
				c3.348-6.38,6.562-12.899,9.738-19.493c3.208-6.58,6.436-13.208,9.686-19.875c6.478-13.345,12.601-27.063,19.014-40.773
				c6.097-13.855,12.244-27.82,18.416-41.839c5.857-14.157,12.127-28.204,17.873-42.474c5.769-14.26,11.685-28.461,17.145-42.781
				c2.779-7.141,5.551-14.267,8.317-21.373c2.668-7.144,5.327-14.266,7.976-21.361c10.635-28.364,20.418-56.533,29.75-83.836
				c9.153-27.364,18.003-53.824,25.807-79.104c7.966-25.232,14.997-49.241,21.435-71.419c6.25-22.229,12.101-42.578,16.888-60.724
				c4.888-18.119,8.883-33.984,12.133-47.057c3.172-13.089,5.698-23.373,7.238-30.41c0.751-3.461,1.33-6.115,1.719-7.902
				c0.325-1.832,0.494-2.778,0.494-2.778l0.029-0.183c0.162-0.903,1.024-1.505,1.927-1.345
				C3088.036,1895.995,3088.631,1896.828,3088.504,1897.711z"/>
		</g>
		<g>
			<path style="fill:#BDD0FB;" d="M2666.819,2976.142c0,0,2.159-116.949,119.616-235.614
				c108.979-110.1,376.896-364.847,438.439-505.686c2.726-6.239,11.981-4.42,12.068,2.389
				c0.927,73.03-11.128,256.117-136.874,438.409C2937.912,2910.716,2666.819,2976.142,2666.819,2976.142z"/>
			
				<linearGradient id="SVGID_00000000932899997352231940000006293046396846430084_" gradientUnits="userSpaceOnUse" x1="2697.7903" y1="2660.5215" x2="3182.6877" y2="2660.5215">
				<stop  offset="0" style="stop-color:#DAE3FE"/>
				<stop  offset="1" style="stop-color:#E9EFFD"/>
			</linearGradient>
			<path style="fill:url(#SVGID_00000000932899997352231940000006293046396846430084_);" d="M3182.687,2365.702
				c0,0-0.231,3.021-1.125,8.645c-0.432,2.812-0.995,6.277-1.846,10.314c-0.722,4.07-1.863,8.671-3.143,13.831
				c-1.16,5.198-2.948,10.801-4.671,16.983c-1.807,6.155-4.196,12.664-6.513,19.714c-2.623,6.927-5.389,14.327-8.542,22.03
				c-3.439,7.567-6.748,15.691-10.781,23.885c-7.927,16.458-17.36,33.903-28.381,51.716c-5.646,8.815-11.057,18.154-17.62,26.987
				c-6.426,8.922-12.595,18.35-19.833,27.198c-13.771,18.257-29.317,36.075-45.585,53.701c-8.363,8.613-16.655,17.366-25.239,26.021
				c-8.675,8.358-17.385,16.747-26.096,25.136c-17.626,16.659-35.301,33.291-53.005,49.256
				c-17.714,15.972-35.295,31.513-52.388,46.454c-17.213,14.774-33.855,29.057-49.635,42.6
				c-15.764,13.531-30.803,26.165-44.343,38.156c-13.619,11.922-25.921,22.999-36.527,33.133
				c-5.304,5.061-10.037,10.009-14.545,14.475c-4.333,4.612-8.197,8.951-11.756,12.819c-6.705,8.051-12.091,14.333-15.192,19.016
				c-3.289,4.563-5.044,6.998-5.044,6.998l-0.075,0.106c-0.536,0.746-1.576,0.915-2.324,0.377c-0.715-0.517-0.897-1.503-0.432-2.241
				c0,0,1.632-2.574,4.693-7.404c2.922-4.942,7.879-11.703,14.366-20.192c3.432-4.073,7.17-8.651,11.366-13.521
				c4.352-4.707,8.942-9.938,14.074-15.28c10.31-10.641,22.082-22.518,35.448-34.848c13.284-12.439,27.865-25.646,43.362-39.519
				c15.491-13.849,31.823-28.454,48.721-43.563c16.888-15.096,34.245-30.783,51.721-46.892c8.717-8.075,17.5-16.212,26.321-24.384
				c8.74-8.239,17.513-16.513,26.285-24.786c8.701-8.399,17.402-16.798,26.071-25.164c8.392-8.499,16.752-16.965,25.047-25.363
				c16.199-17.184,31.566-34.646,45.594-52.229c7.323-8.558,13.573-17.688,20.093-26.332c6.617-8.586,12.24-17.561,18.104-26.051
				c11.464-17.152,21.201-34.069,29.837-49.883c4.342-7.896,7.953-15.742,11.691-23.065c3.423-7.463,6.644-14.567,9.598-21.278
				c5.558-13.559,10.085-25.539,13.29-35.583c1.625-5.016,3.016-9.517,4.082-13.472c1.167-3.935,2.002-7.319,2.659-10.072
				c1.333-5.495,1.807-8.487,1.807-8.487c0.02-0.112,0.124-0.188,0.237-0.171
				C3182.622,2365.494,3182.697,2365.596,3182.687,2365.702z"/>
		</g>
		<g>
			<path style="fill:#BDD0FB;" d="M1055.527,775.978c-42.344,126.744-258.642,874.385,406.474,1203.375
				c0,0,269.101-455.543-387.247-1207.261C1069.012,765.516,1058.293,767.698,1055.527,775.978z"/>
			
				<linearGradient id="SVGID_00000148629734012655740280000003262332061212072594_" gradientUnits="userSpaceOnUse" x1="1096.3785" y1="1403.7665" x2="1319.8613" y2="1403.7665">
				<stop  offset="0" style="stop-color:#DAE3FE"/>
				<stop  offset="1" style="stop-color:#E9EFFD"/>
			</linearGradient>
			<path style="fill:url(#SVGID_00000148629734012655740280000003262332061212072594_);" d="M1102.01,903.202
				c0,0,5.165,63.752,16.706,159.016c2.873,23.815,6.159,49.593,9.835,76.831c3.718,27.231,7.719,55.937,12.267,85.571
				c4.44,29.65,9.426,60.225,14.659,91.26c2.727,15.498,5.474,31.119,8.233,46.801c2.951,15.646,5.74,31.388,8.844,47.065
				c3.11,15.677,6.075,31.384,9.396,46.951c3.214,15.59,6.455,31.11,9.92,46.451c1.7,7.678,3.393,15.324,5.08,22.933
				c1.781,7.585,3.556,15.133,5.317,22.636c3.436,15.027,7.183,29.78,10.827,44.301c14.665,58.061,30.416,111.692,45.8,156.973
				c3.673,11.383,7.661,22.119,11.376,32.357c1.856,5.118,3.666,10.106,5.425,14.954c1.814,4.825,3.715,9.455,5.483,13.972
				c3.618,8.998,6.806,17.507,10.105,25.216c3.344,7.689,6.416,14.752,9.188,21.132c1.394,3.186,2.714,6.201,3.952,9.039
				c1.342,2.787,2.6,5.4,3.77,7.832c2.34,4.862,4.329,8.997,5.942,12.35c3.224,6.706,4.947,10.283,4.947,10.283l0.12,0.254
				c1.593,3.313,0.201,7.29-3.114,8.883c-3.312,1.593-7.287,0.199-8.88-3.114l-0.023-0.043c0,0-1.719-3.647-4.947-10.484
				c-1.615-3.419-3.604-7.634-5.941-12.591c-1.17-2.478-2.428-5.141-3.767-7.983c-1.235-2.884-2.548-5.949-3.936-9.187
				c-2.763-6.482-5.818-13.658-9.146-21.471c-3.283-7.83-6.439-16.444-10.024-25.567c-1.752-4.576-3.64-9.272-5.435-14.157
				c-1.739-4.905-3.526-9.949-5.36-15.128c-3.67-10.355-7.609-21.216-11.223-32.707c-15.159-45.74-30.588-99.779-44.876-158.184
				c-3.546-14.607-7.199-29.447-10.531-44.549c-1.713-7.541-3.436-15.127-5.165-22.753c-1.635-7.645-3.279-15.328-4.927-23.042
				c-3.358-15.415-6.491-31.003-9.598-46.658c-3.214-15.635-6.068-31.4-9.065-47.138c-2.997-15.739-5.672-31.534-8.509-47.235
				c-2.649-15.734-5.285-31.406-7.901-46.955c-5.009-31.132-9.774-61.795-13.996-91.523c-4.333-29.712-8.122-58.489-11.642-85.783
				c-3.478-27.302-6.575-53.136-9.273-77.001c-10.84-95.459-15.536-159.372-15.536-159.372c-0.117-1.553,1.047-2.907,2.6-3.024
				C1100.534,900.501,1101.883,901.66,1102.01,903.202z"/>
		</g>
		<g>
			<path style="fill:#91B3FA;" d="M705.423,931.931c0.222-13.207,18.04-17.347,24.011-5.565
				c57.723,113.907,218.438,407.85,403.16,544.14c300.769,221.913,552.33,629.161,439.144,888.309
				C1571.738,2358.816,681.276,2370.883,705.423,931.931z"/>
			<path style="fill:#BDD0FB;" d="M767.102,1098.478c0,0,0.422,1.25,1.245,3.67c0.913,2.365,2.142,5.789,3.991,10.423
				c3.552,9.236,9.101,22.675,16.144,39.774c7.141,17.063,15.871,37.758,26.291,61.324c10.294,23.62,22.453,50.027,35.629,78.865
				c13.404,28.736,28.001,59.832,44.119,92.391c15.923,32.655,33.478,66.707,51.692,101.895
				c18.458,35.061,37.713,71.201,58.164,107.426c5.103,9.063,10.222,18.162,15.357,27.288c5.262,9.054,10.537,18.135,15.822,27.234
				c10.45,18.27,21.494,36.282,32.35,54.405c10.833,18.137,22.303,35.88,33.286,53.828c11.298,17.748,22.622,35.385,33.952,52.815
				c11.636,17.228,22.882,34.525,34.531,51.242c5.838,8.351,11.639,16.65,17.399,24.891c2.88,4.121,5.75,8.226,8.61,12.316
				c2.938,4.032,5.863,8.048,8.779,12.047c5.847,7.988,11.643,15.908,17.386,23.755c2.88,3.918,5.743,7.817,8.594,11.696
				c2.935,3.816,5.854,7.612,8.756,11.388c11.734,15.007,22.638,30.15,34.199,44.135c5.685,7.072,11.292,14.048,16.81,20.919
				c2.763,3.436,5.503,6.845,8.22,10.229c2.805,3.31,5.587,6.593,8.347,9.85c11.116,12.952,21.618,25.685,32.135,37.518
				c10.622,11.745,20.802,23,30.481,33.706c9.825,10.569,19.42,20.336,28.294,29.659c4.463,4.635,8.782,9.121,12.952,13.452
				c4.316,4.183,8.477,8.216,12.471,12.091c7.999,7.753,15.345,14.873,21.978,21.305c13.518,12.593,24.478,22.128,31.781,28.818
				c7.359,6.631,11.285,10.168,11.285,10.168l0.052,0.047c0.682,0.615,0.738,1.667,0.12,2.349c-0.604,0.67-1.632,0.733-2.314,0.151
				c0,0-4.027-3.439-11.577-9.887c-7.489-6.518-18.783-15.746-32.568-28.149c-6.783-6.321-14.295-13.319-22.472-20.938
				c-4.089-3.811-8.347-7.777-12.761-11.891c-4.271-4.263-8.694-8.678-13.267-13.24c-9.072-9.19-18.949-18.768-28.96-29.243
				c-9.852-10.631-20.207-21.808-31.014-33.471c-10.706-11.754-21.4-24.404-32.72-37.276c-2.811-3.237-5.642-6.5-8.499-9.792
				c-2.769-3.362-5.561-6.751-8.376-10.166c-5.626-6.831-11.34-13.767-17.132-20.797c-23.07-28.2-46.417-58.736-69.839-90.839
				c-2.945-4.003-5.899-8.022-8.864-12.058c-2.886-4.093-5.782-8.201-8.688-12.324c-5.815-8.248-11.668-16.554-17.561-24.91
				c-11.756-16.731-23.109-34.037-34.856-51.28c-11.438-17.442-22.869-35.09-34.274-52.851
				c-5.568-8.966-11.145-17.949-16.726-26.942c-5.571-9-11.187-17.983-16.554-27.117c-10.827-18.213-21.839-36.316-32.252-54.669
				c-5.269-9.141-10.528-18.265-15.77-27.361c-5.119-9.167-10.222-18.307-15.302-27.411
				c-20.379-36.387-39.552-72.677-57.929-107.879c-18.062-35.369-35.171-69.733-50.821-102.595
				c-15.806-32.786-30.107-64.088-43.232-93.009c-25.966-57.978-46.095-106.947-59.772-141.384
				c-6.783-17.245-11.941-30.857-15.325-40.203c-1.726-4.618-2.98-8.381-3.848-10.82c-0.77-2.45-1.164-3.714-1.164-3.714
				c-0.276-0.875,0.211-1.807,1.086-2.081c0.861-0.271,1.781,0.198,2.07,1.049L767.102,1098.478z"/>
		</g>
		<g>
			<path style="fill:#BDD0FB;" d="M1585.881,2378.963c0,0-40.483-178.531-258.199-323.04
				c-202.002-134.079-693.544-439.299-832.623-635.563c-6.16-8.694-19.766-2.965-17.734,7.497
				c21.795,112.208,98.465,388.945,349.109,628.325C1149.65,2364.877,1585.881,2378.963,1585.881,2378.963z"/>
			
				<linearGradient id="SVGID_00000138538791470486244870000006461131670381666742_" gradientUnits="userSpaceOnUse" x1="601.4028" y1="1982.0536" x2="1530.4727" y2="1982.0536">
				<stop  offset="0" style="stop-color:#DAE3FE"/>
				<stop  offset="1" style="stop-color:#E9EFFD"/>
			</linearGradient>
			<path style="fill:url(#SVGID_00000138538791470486244870000006461131670381666742_);" d="M601.803,1607.311
				c0,0,1.612,4.455,5.288,12.513c1.82,4.039,4.108,8.998,7.063,14.703c1.472,2.853,2.935,5.977,4.677,9.217
				c1.755,3.234,3.621,6.67,5.594,10.3c3.793,7.337,8.72,15.065,13.739,23.652c5.093,8.545,11.22,17.417,17.415,27.088
				c6.585,9.423,13.723,19.357,21.241,29.812c3.933,5.105,7.966,10.341,12.097,15.7c4.177,5.32,8.207,10.949,12.884,16.26
				c18.019,21.778,38.363,44.701,61.326,67.521c5.776,5.668,11.629,11.413,17.555,17.23c3.013,2.856,5.834,5.942,9.006,8.704
				c3.12,2.812,6.26,5.641,9.416,8.485c6.312,5.687,12.692,11.436,19.131,17.24c3.263,2.854,6.361,5.925,9.799,8.638
				c3.39,2.768,6.793,5.548,10.212,8.34c27.055,22.686,56.223,44.65,86.551,65.953c15.419,10.28,30.9,20.814,46.537,31.076
				c15.946,10.063,31.95,20.165,47.954,30.266c16.095,9.896,32.187,19.792,48.218,29.65c16.131,9.71,32.2,19.381,48.143,28.978
				c16.021,9.474,31.914,18.872,47.616,28.158c15.783,9.157,31.372,18.203,46.71,27.101c30.741,17.712,60.458,34.834,88.641,51.07
				c28.19,16.259,54.884,31.573,79.251,46.251c24.481,14.466,46.378,28.711,65.613,41.571c9.598,6.467,18.315,12.938,26.512,18.692
				c7.999,6.05,15.205,11.803,21.783,16.891c12.676,10.812,22.511,19.44,28.596,26.002c6.273,6.342,9.617,9.724,9.617,9.724
				c0.647,0.654,0.64,1.708-0.013,2.354c-0.637,0.631-1.658,0.641-2.308,0.034l-0.094-0.091c0,0-3.439-3.219-9.881-9.254
				c-6.208-6.271-16.365-14.344-29.161-24.683c-6.663-4.862-13.944-10.354-22.027-16.124c-8.298-5.488-17.1-11.653-26.805-17.811
				c-19.414-12.327-41.711-25.605-66.292-39.726c-24.504-14.234-51.409-29.104-79.836-44.9
				c-28.446-15.802-58.443-32.466-89.473-49.706c-15.422-8.803-31.102-17.755-46.976-26.815c-15.799-9.194-31.791-18.5-47.912-27.88
				c-16.037-9.526-32.22-19.084-48.351-28.908c-16.095-9.882-32.256-19.803-48.416-29.724
				c-16.011-10.09-32.025-20.181-47.974-30.232c-15.848-10.476-31.336-21.201-46.859-31.683
				c-30.491-21.722-59.902-43.997-86.844-67.396c-3.413-2.868-6.813-5.724-10.196-8.567c-3.429-2.788-6.523-5.937-9.78-8.866
				c-6.426-5.954-12.79-11.852-19.086-17.687c-12.871-11.371-24.149-23.873-35.626-35.503
				c-22.606-23.614-42.562-47.257-60.185-69.666c-4.576-5.467-8.509-11.252-12.585-16.719c-4.027-5.505-7.96-10.883-11.795-16.126
				c-3.783-5.278-7.147-10.654-10.55-15.776c-3.351-5.16-6.705-10.101-9.77-15.01c-5.864-9.991-11.665-19.138-16.453-27.936
				c-4.713-8.839-9.348-16.78-12.878-24.309c-3.696-7.436-6.998-14.069-9.481-20.028c-2.668-5.87-4.703-10.963-6.318-15.106
				c-3.27-8.272-4.651-12.807-4.651-12.807c-0.036-0.107,0.023-0.224,0.13-0.261C601.647,1607.151,601.761,1607.21,601.803,1607.311
				z"/>
		</g>
		<g>
			<g>
				
					<linearGradient id="SVGID_00000098214373316158121470000016358407659134613421_" gradientUnits="userSpaceOnUse" x1="1842.9226" y1="1764.6287" x2="1852.9095" y2="3472.2034">
					<stop  offset="0" style="stop-color:#FE7062"/>
					<stop  offset="0.599" style="stop-color:#FF837B"/>
					<stop  offset="1" style="stop-color:#FF928E"/>
				</linearGradient>
				<path style="fill:url(#SVGID_00000098214373316158121470000016358407659134613421_);" d="M2681.874,3016.765H942.809
					c-70.211,0-127.129-56.917-127.129-127.129V1757.239c0-67.463,52.696-123.177,120.053-126.931l1806.171-100.672
					c75.621-4.215,138.132,58.212,134.015,133.839l-67.106,1233.069C2805.145,2963.972,2749.4,3016.765,2681.874,3016.765z"/>
				<g>
					
						<linearGradient id="SVGID_00000097473157334646823650000008863674275931713700_" gradientUnits="userSpaceOnUse" x1="1840.2521" y1="1135.2637" x2="1820.2797" y2="2014.0153">
						<stop  offset="0" style="stop-color:#FE7062"/>
						<stop  offset="1" style="stop-color:#FF928E"/>
					</linearGradient>
					<path style="fill:url(#SVGID_00000097473157334646823650000008863674275931713700_);" d="M1852.947,2333.465l950.63-791.707
						c-18.545-8.846-39.538-13.356-61.672-12.121L935.734,1630.307c-31.058,1.731-58.983,14.528-80.078,34.413l711.462,661.667
						C1644.354,2398.219,1771.416,2401.365,1852.947,2333.465z"/>
				</g>
			</g>
			<path style="opacity:0.65;fill:#FFFFFF;" d="M1720.792,2294.228c-47.263,0-94.309-16.909-132.115-50.287l-268.064-236.653
				c-7.867-6.945-8.614-18.95-1.669-26.816c6.945-7.88,18.962-8.622,26.816-1.669l268.063,236.653
				c56.948,50.268,139.797,54.417,201.495,10.081l138.904-99.839c8.548-6.123,20.391-4.168,26.52,4.342
				c6.123,8.523,4.181,20.391-4.342,26.519l-138.906,99.838C1802.267,2281.71,1761.449,2294.228,1720.792,2294.228z"/>
			<path style="opacity:0.65;fill:#FFFFFF;" d="M1233.454,1924.001c-4.471,0-8.955-1.564-12.567-4.756l-36.087-31.856
				c-7.867-6.946-8.615-18.95-1.671-26.817c6.94-7.88,18.95-8.609,26.817-1.669l36.088,31.856c7.866,6.945,8.614,18.95,1.669,26.816
				C1243.949,1921.83,1238.71,1924.001,1233.454,1924.001z"/>
		</g>
		<g>
			<polygon style="fill:#91B3FA;" points="1495.61,1152.917 1423.051,1541.379 1649.25,1342.512 			"/>
			<path style="fill:#91B3FA;" d="M3141.948,1270.068l-1572.155,76.299c-40.376,1.959-74.184-30.248-74.184-70.671V628.91
				c0-70.3,55.836-127.891,126.103-130.065L3038.63,455c105.516,0,191.053,85.537,191.053,191.053v531.919
				C3229.683,1227.158,3191.076,1267.684,3141.948,1270.068z"/>
			<path style="opacity:0.85;fill:#FFFFFF;" d="M1616.816,1318.649c-24.608,0-47.799-9.273-65.743-26.387
				c-19.069-18.19-29.574-42.723-29.574-69.079V640.237c0-67.75,54.341-122.462,123.712-124.557l1371.889-41.425
				c102.965-0.002,186.695,81.725,186.695,182.179v502.584c0,47.428-38.009,86.381-86.532,88.679l-0.078-1.662l0.078,1.662
				l-1495.786,70.841C1619.92,1318.612,1618.363,1318.649,1616.816,1318.649z M3017.148,477.582l-1371.84,41.426
				c-67.56,2.04-120.481,55.289-120.481,121.228v582.945c0,25.437,10.138,49.115,28.544,66.671
				c18.409,17.558,42.504,26.556,67.95,25.36l1495.786-70.841c46.742-2.214,83.359-39.705,83.359-85.354V656.435
				C3200.466,557.815,3118.231,477.582,3017.148,477.582z"/>
			<g>
				<path style="fill:#FFFFFF;" d="M1744.795,768.683c1.775,0.158,3.367,0.543,4.791,1.154c1.42,0.611,2.818,1.52,4.186,2.72
					c1.372,1.206,2.899,2.807,4.593,4.807l175.209,207.403c-0.774-5.127-1.359-10.152-1.758-15.075
					c-0.397-4.921-0.673-9.514-0.826-13.783l-6.985-194.012l52.31-1.883l11.49,319.157l-30.682,1.105
					c-4.71,0.169-8.633-0.422-11.776-1.786c-3.143-1.357-6.257-3.897-9.335-7.619l-174.516-206.543
					c0.611,4.695,1.112,9.353,1.502,13.979c0.387,4.627,0.65,8.854,0.786,12.679l7.056,195.996l-52.31,1.883l-11.49-319.157
					l31.118-1.121C1740.81,768.494,1743.021,768.525,1744.795,768.683z"/>
				<path style="fill:#FFFFFF;" d="M2242.057,750.447l1.7,47.233l-141.478,5.093l3.185,88.51l111.465-4.013l1.645,45.687
					l-111.465,4.012l3.25,90.273l141.478-5.093l1.71,47.454l-201.295,7.248l-11.487-319.157L2242.057,750.447z"/>
				<path style="fill:#FFFFFF;" d="M2263.905,749.661l49.882-1.796c5.148-0.185,9.494,0.876,13.04,3.179
					c3.543,2.301,5.98,5.495,7.307,9.57l61.17,188.964c1.495,4.666,2.893,9.731,4.196,15.21c1.303,5.478,2.577,11.29,3.832,17.431
					c0.952-6.221,2.031-12.117,3.231-17.685c1.196-5.569,2.522-10.734,3.972-15.504l55.81-193.176
					c1.056-3.426,3.26-6.601,6.618-9.52c3.357-2.919,7.537-4.471,12.543-4.651l17.434-0.629c5.148-0.185,9.458,0.878,12.933,3.184
					c3.471,2.304,5.945,5.496,7.417,9.565l69.117,188.678c3.575,9.306,6.748,19.649,9.517,31.043
					c0.819-5.777,1.69-11.334,2.604-16.671c0.913-5.337,1.875-10.305,2.886-14.912l47.425-192.874
					c0.894-3.714,3.062-6.961,6.501-9.738c3.439-2.774,7.657-4.253,12.66-4.433l46.57-1.677l-87.611,322.725l-53.636,1.931
					l-77.597-215.556c-0.981-2.761-2.015-5.747-3.084-8.951c-1.076-3.2-2.116-6.626-3.133-10.274
					c-0.751,3.712-1.544,7.204-2.382,10.472c-0.845,3.275-1.655,6.325-2.435,9.15l-62.558,220.602l-53.636,1.932L2263.905,749.661z"
					/>
				<path style="fill:#FFFFFF;" d="M2928.588,783.855c-1.508,3.297-3.302,5.642-5.386,7.045c-2.087,1.401-4.599,2.153-7.544,2.259
					c-2.945,0.107-6.293-0.912-10.056-3.063c-3.757-2.145-8.191-4.528-13.294-7.144c-5.106-2.613-11.044-4.942-17.824-6.983
					c-6.777-2.04-14.727-2.898-23.847-2.569c-8.243,0.297-15.38,1.55-21.416,3.756c-6.032,2.205-11.083,5.15-15.146,8.834
					c-4.069,3.681-7.043,8.026-8.925,13.029c-1.885,5.007-2.717,10.451-2.509,16.334c0.273,7.505,2.594,13.685,6.969,18.535
					c4.375,4.853,10.079,8.919,17.122,12.201c7.047,3.281,15.029,6.164,23.961,8.641c8.928,2.478,18.049,5.134,27.361,7.965
					c9.305,2.834,18.455,6.185,27.432,10.063c8.98,3.874,17.041,8.89,24.188,15.041c7.147,6.151,12.985,13.788,17.512,22.906
					c4.528,9.12,7.03,20.301,7.508,33.543c0.52,14.423-1.463,28.011-5.938,40.768c-4.479,12.759-11.295,23.982-20.448,33.666
					c-9.153,9.686-20.477,17.46-33.965,23.322c-13.492,5.862-29.067,9.114-46.726,9.749c-10.154,0.366-20.197-0.268-30.123-1.898
					c-9.933-1.632-19.485-4.123-28.667-7.477c-9.182-3.349-17.805-7.459-25.859-12.33c-8.061-4.864-15.289-10.352-21.699-16.456
					l16.193-29.093c1.541-2.116,3.429-3.913,5.662-5.397c2.23-1.477,4.739-2.269,7.537-2.37c3.676-0.133,7.707,1.235,12.081,4.095
					c4.375,2.863,9.533,6.031,15.481,9.497c5.945,3.471,12.907,6.574,20.89,9.304c7.976,2.735,17.49,3.9,28.524,3.504
					c16.921-0.609,29.873-5.088,38.854-13.445c8.984-8.35,13.203-20.033,12.663-35.043c-0.306-8.387-2.646-15.153-7.031-20.299
					c-4.385-5.147-10.102-9.395-17.145-12.752c-7.047-3.356-15.029-6.125-23.948-8.311c-8.919-2.181-17.993-4.581-27.221-7.196
					c-9.231-2.613-18.328-5.823-27.309-9.626c-8.974-3.798-17.041-8.888-24.195-15.263c-7.16-6.372-13.008-14.449-17.561-24.231
					c-4.55-9.78-7.086-21.954-7.612-36.522c-0.416-11.621,1.492-23.038,5.73-34.24c4.235-11.204,10.651-21.231,19.248-30.088
					c8.594-8.851,19.274-16.087,32.038-21.705c12.76-5.615,27.458-8.724,44.087-9.322c18.832-0.678,36.305,1.64,52.407,6.952
					c16.102,5.316,29.935,13.066,41.5,23.257L2928.588,783.855z"/>
			</g>
		</g>
		<g>
			
				<linearGradient id="SVGID_00000010280562798843118940000014890902014182102428_" gradientUnits="userSpaceOnUse" x1="1390.8613" y1="1153.644" x2="1219.9637" y2="1505.9019" gradientTransform="matrix(0.987 0.1608 -0.1608 0.987 126.9837 357.2448)">
				<stop  offset="0" style="stop-color:#09005D"/>
				<stop  offset="1" style="stop-color:#1A0F91"/>
			</linearGradient>
			<path style="fill:url(#SVGID_00000010280562798843118940000014890902014182102428_);" d="M985.978,2015.97
				c-0.873,1.653-55.831,42.095-55.831,42.095s12.137,86.827,61.422,121.114c54.185,37.695,130.709-31.049,130.709-31.049
				s60.9,14.477,93.286-112.294c7.43-29.084-35.46-31.543-87.224-26.186C1061.588,2016.557,985.978,2015.97,985.978,2015.97z"/>
			
				<linearGradient id="SVGID_00000164504897213806410340000018009238352788571063_" gradientUnits="userSpaceOnUse" x1="1059.9583" y1="2290.9268" x2="1124.6785" y2="4248.6978">
				<stop  offset="0" style="stop-color:#4F52FF"/>
				<stop  offset="1" style="stop-color:#4042E2"/>
			</linearGradient>
			<path style="fill:url(#SVGID_00000164504897213806410340000018009238352788571063_);" d="M847.034,2354.441
				c25.58-17.588,53.862-30.848,83.847-39.008c11.262-3.065,72.071,14.609,109.662,13.745c51.6-1.186,104.124-24.669,146.658-14.069
				c42.25,10.529,76.829,24.281,96.796,38.481c59.763,42.507,94.853,121.765,116.236,200.274
				c-40.49,41.563-91.444,60.036-91.444,60.036l-9.416,381.611l-225.653,115.454l-257.557-129.308l9.226-372.926
				c0,0-81.787-38.088-87.788-51.942C731.6,2542.933,774.876,2404.053,847.034,2354.441z"/>
			
				<linearGradient id="SVGID_00000163765101819949504690000016903776793320895162_" gradientUnits="userSpaceOnUse" x1="685.4117" y1="2473.4253" x2="1114.2172" y2="3509.2415">
				<stop  offset="0" style="stop-color:#FEBBBA"/>
				<stop  offset="1" style="stop-color:#FF928E"/>
			</linearGradient>
			<path style="fill:url(#SVGID_00000163765101819949504690000016903776793320895162_);" d="M741.41,2555.122
				c0,0-109.599,303.853,140.327,428.735c51.895-6.894,31.935-93.075,31.935-93.075s-108.594-24.032-75.98-277.503
				C807.665,2588.573,741.41,2555.122,741.41,2555.122z"/>
			
				<linearGradient id="SVGID_00000048479374262336714060000011852600037774431105_" gradientUnits="userSpaceOnUse" x1="-5612.6563" y1="2471.199" x2="-5183.8511" y2="3507.0146" gradientTransform="matrix(-1 0 0 1 -4167.0742 0)">
				<stop  offset="0" style="stop-color:#FEBBBA"/>
				<stop  offset="1" style="stop-color:#FF928E"/>
			</linearGradient>
			<path style="fill:url(#SVGID_00000048479374262336714060000011852600037774431105_);" d="M1394.962,2555.122
				c0,0,75.416,317.181-140.327,428.735c-51.895-6.894-31.936-93.075-31.936-93.075s87.521-43.103,75.98-277.503
				C1328.707,2588.573,1394.962,2555.122,1394.962,2555.122z"/>
			
				<linearGradient id="SVGID_00000085943019021860281320000001696884568178076091_" gradientUnits="userSpaceOnUse" x1="720.209" y1="3261.938" x2="1270.5134" y2="2576.7556">
				<stop  offset="0" style="stop-color:#09005D"/>
				<stop  offset="1" style="stop-color:#1A0F91"/>
			</linearGradient>
			<path style="fill:url(#SVGID_00000085943019021860281320000001696884568178076091_);" d="M1286.24,3005.198H834.975
				c-11.981,0-21.783-9.802-21.783-21.783v-290.612c0-11.981,9.802-21.783,21.783-21.783h451.265
				c11.981,0,21.783,9.802,21.783,21.783v290.613C1308.023,2995.396,1298.221,3005.198,1286.24,3005.198z"/>
			<g>
				
					<linearGradient id="SVGID_00000052062835371558939020000016733091741807125690_" gradientUnits="userSpaceOnUse" x1="1701.9888" y1="3154.408" x2="460.63" y2="3139.512">
					<stop  offset="0" style="stop-color:#09005D"/>
					<stop  offset="1" style="stop-color:#1A0F91"/>
				</linearGradient>
				<path style="fill:url(#SVGID_00000052062835371558939020000016733091741807125690_);" d="M1530.674,3105.69
					c-1.774-0.499-3.651-0.971-5.611-1.422c-56.63-12.998-187.513-6.009-187.513-6.009l-5.323,14.417l-8.817,71.658
					c0,0,124.645,22.467,186.085,22.412c6.269-0.005,12.002-0.946,17.24-2.576
					C1572.825,3189.825,1578.281,3119.082,1530.674,3105.69z"/>
				
					<linearGradient id="SVGID_00000062893681540074830320000018389427897873975206_" gradientUnits="userSpaceOnUse" x1="1478.3346" y1="2727.9836" x2="1230.9866" y2="3397.9529">
					<stop  offset="0" style="stop-color:#FEBBBA"/>
					<stop  offset="1" style="stop-color:#FF928E"/>
				</linearGradient>
				<path style="fill:url(#SVGID_00000062893681540074830320000018389427897873975206_);" d="M1299.942,3094.224l22.163,0.945
					c11.907,0.508,23.129,6.31,31.135,16.098c8.007,9.789,12.124,22.739,11.423,35.932c-0.558,10.519-4.875,20.357-11.993,27.337
					c-7.118,6.98-16.451,10.524-25.933,9.849l-33.911-2.414L1299.942,3094.224z"/>
			</g>
			<g>
				
					<linearGradient id="SVGID_00000067929695709929253120000006245264636025188739_" gradientUnits="userSpaceOnUse" x1="892.7642" y1="3149.8164" x2="-348.4088" y2="3134.9226">
					<stop  offset="0" style="stop-color:#09005D"/>
					<stop  offset="1" style="stop-color:#1A0F91"/>
				</linearGradient>
				<path style="fill:url(#SVGID_00000067929695709929253120000006245264636025188739_);" d="M747.263,3111.697l-4.962-14.574
					c0,0-130.66-11.003-187.591,0.253c-1.969,0.39-3.859,0.803-5.645,1.248c-47.923,11.927-44.233,82.809,1.482,98.563
					c5.194,1.79,10.903,2.906,17.168,3.104c61.415,1.94,186.573-16.693,186.573-16.693L747.263,3111.697z"/>
				
					<linearGradient id="SVGID_00000114053218856208531240000011109604128514850183_" gradientUnits="userSpaceOnUse" x1="982.7675" y1="2526.0874" x2="735.2891" y2="3196.4097">
					<stop  offset="0" style="stop-color:#FEBBBA"/>
					<stop  offset="1" style="stop-color:#FF928E"/>
				</linearGradient>
				<path style="fill:url(#SVGID_00000114053218856208531240000011109604128514850183_);" d="M779.995,3094.243l-22.178,0.265
					c-11.916,0.143-23.278,5.598-31.525,15.137c-8.248,9.539-12.686,22.358-12.315,35.567c0.296,10.532,4.365,20.499,11.307,27.695
					c6.942,7.195,16.183,11.025,25.678,10.641l33.958-1.372L779.995,3094.243z"/>
			</g>
			
				<linearGradient id="SVGID_00000156570770820741339330000008766100397988527013_" gradientUnits="userSpaceOnUse" x1="1258.3177" y1="2751.8264" x2="818.9437" y2="3890.2073">
				<stop  offset="0" style="stop-color:#4F52FF"/>
				<stop  offset="1" style="stop-color:#4042E2"/>
			</linearGradient>
			<path style="fill:url(#SVGID_00000156570770820741339330000008766100397988527013_);" d="M1540.9,2879.627
				c-25.681-59.107-88.493-68.701-141.954-41.065c-0.93,1.222-339.504,174.745-638.085,250.795
				c8.547,27.403,12.943,56.561,13.901,85.222c0.173,6.385,0.066,12.682-0.309,18.897c228.969-11.76,477.468-88.121,691.004-155.228
				C1531.673,3016.893,1569.364,2945.137,1540.9,2879.627z"/>
			
				<linearGradient id="SVGID_00000035490626485110676210000006668375907641381264_" gradientUnits="userSpaceOnUse" x1="1151.3383" y1="3300.5913" x2="565.565" y2="2488.4954">
				<stop  offset="0" style="stop-color:#4F52FF"/>
				<stop  offset="1" style="stop-color:#4042E2"/>
			</linearGradient>
			<path style="fill:url(#SVGID_00000035490626485110676210000006668375907641381264_);" d="M1301.569,3179.068
				c-0.895-33.035,5.527-63.788,19.268-92.259c0.393-1.304,0.863-2.556,1.279-3.845c-17.051-5.28-39.077-12.435-68.013-22.25
				c-212.022-72.56-373.771-145.825-528.142-230.165c-59.971-32.765-128.158-10.805-147.355,60.156
				c-17.139,63.347,20.496,117.429,77.614,136.436c170.882,56.864,81.909,41.068,137.719,59.029
				c149.88,46.347,336.389,88.563,507.988,100.091C1301.797,3183.862,1301.65,3181.461,1301.569,3179.068z"/>
			
				<linearGradient id="SVGID_00000025431148411349742190000001611734447525641101_" gradientUnits="userSpaceOnUse" x1="1061.8414" y1="2558.9502" x2="1056.136" y2="2062.5356">
				<stop  offset="0" style="stop-color:#FEBBBA"/>
				<stop  offset="1" style="stop-color:#FF928E"/>
			</linearGradient>
			<path style="fill:url(#SVGID_00000025431148411349742190000001611734447525641101_);" d="M930.881,2315.433
				c0,0,22.802,98.814,133.509,96.762c112.759-2.052,122.811-97.087,122.811-97.087l-73.657-15.761l-6.156-82.072l-110.796,8.207
				l-2.052,77.968L930.881,2315.433z"/>
			
				<linearGradient id="SVGID_00000079485198860895583650000011946080289550489020_" gradientUnits="userSpaceOnUse" x1="1215.6338" y1="1722.1514" x2="1230.5721" y2="1359.0841" gradientTransform="matrix(0.987 0.1608 -0.1608 0.987 126.9837 357.2448)">
				<stop  offset="0" style="stop-color:#FEBBBA"/>
				<stop  offset="1" style="stop-color:#FF928E"/>
			</linearGradient>
			<path style="fill:url(#SVGID_00000079485198860895583650000011946080289550489020_);" d="M1022.029,2001.467
				c0,0-106.72,206.722,19.874,256.876c89.294,35.375,145.279-137.279,128.581-184.042c-25.819-72.305-42.823-63.725-42.823-63.725
				L1022.029,2001.467z"/>
			
				<linearGradient id="SVGID_00000137854435304614296710000008067340143028038579_" gradientUnits="userSpaceOnUse" x1="1392.1134" y1="1104.0668" x2="1199.8165" y2="1500.4335" gradientTransform="matrix(0.987 0.1608 -0.1608 0.987 126.9837 357.2448)">
				<stop  offset="0" style="stop-color:#09005D"/>
				<stop  offset="1" style="stop-color:#1A0F91"/>
			</linearGradient>
			<path style="fill:url(#SVGID_00000137854435304614296710000008067340143028038579_);" d="M1196.164,1982.657
				c52.722,14.491,7.664,128.832-71.711,101.793c-79.375-27.039-110.567-26.644-122.935-4.848
				c-12.369,21.796-15.027,99.198-41.864,60.94c-29.423-41.944-45.83-126.132-9.754-153.271
				c32.241-24.255,39.765-61.86,78.435-60.557c51.329,1.73,91.024-21.022,114.193-4.614
				C1169.137,1940.946,1157.371,1971.995,1196.164,1982.657z"/>
			
				<linearGradient id="SVGID_00000144306053065260481770000002957107603894919822_" gradientUnits="userSpaceOnUse" x1="683.9714" y1="2630.3306" x2="707.3814" y2="2061.3662" gradientTransform="matrix(0.9911 -0.1329 0.1329 0.9911 -26.0254 -216.2621)">
				<stop  offset="0" style="stop-color:#FEBBBA"/>
				<stop  offset="1" style="stop-color:#FF928E"/>
			</linearGradient>
			<path style="fill:url(#SVGID_00000144306053065260481770000002957107603894919822_);" d="M996.636,2097.377
				c0,0-22.76-24.489-26.404,5.027c-3.644,29.516,8.053,67.531,21.756,46.693C1005.692,2128.26,996.636,2097.377,996.636,2097.377z"
				/>
		</g>
	</g>
</g>
</svg>
